<?xml version="1.0" encoding="utf-8"?>
<!-- Generator: Adobe Illustrator 19.1.0, SVG Export Plug-In . SVG Version: 6.00 Build 0)  -->
<!DOCTYPE svg PUBLIC "-//W3C//DTD SVG 1.1//EN" "http://www.w3.org/Graphics/SVG/1.1/DTD/svg11.dtd">
<svg version="1.1" id="Layer_1" xmlns="http://www.w3.org/2000/svg" xmlns:xlink="http://www.w3.org/1999/xlink" x="0px" y="0px"
	 viewBox="0 0 24 24" style="enable-background:new 0 0 24 24;" xml:space="preserve">
<style type="text/css">
	.st0{fill:#EDDD14;}
	.st1{fill:#D8A821;}
	.st2{fill:#CE7607;}
</style>
<path class="st0" d="M18.5,12.8c1.3-0.3,2.9-0.8,4.7-1.7c0,0-3.2-1.5-5.7-1.3l1.7-0.5l3.7-3.1c0,0-3.8,0.4-6.1,1.7
	c-0.2,0.1-0.5,0.3-0.7,0.4c0.6-1.6,1.1-4,1-7.4c0,0-3.3,2.4-4.1,4.8c-0.1,0.3-0.2,0.5-0.2,0.8c-0.3-1.7-0.9-3.8-2.2-6.4
	c0,0-1.4,3.3-1.1,5.8L7.2,2.7c0,0,0.2,3.2,1.2,5.1c0,0.1,0.1,0.1,0.1,0.2C7,6.8,5.4,5.4,5.2,5C4.8,4.3,5.1,7,6,8.8
	C4.5,8.3,2.9,7.8,1.5,7.6c0,0,2,3.9,5,4.8C5,13.1,3.2,14.2,1.1,16c0,0,4,0.6,6.3-0.5c0.3-0.1,0.6-0.3,0.9-0.4
	c-1.3,1.2-2.9,3-4.6,6.1c0,0,3.9-0.9,5.7-2.7c0.2-0.2,0.5-0.5,0.7-0.8c-0.3,0.7-0.6,1.5-0.6,2.1c-0.1,1.8,0.3,3.2,0.3,3.2
	s2.4-1.1,2.2-5.8c0.7,1.5,2,3.4,4,5.6c0,0,0.4-4-0.8-6.2c1.8,1.4,3.6,2.9,3.8,3.3c0.4,0.8-0.1-3.5-1.6-4.9c0,0,0,0,0,0
	c1.1,0,2.5-0.1,4.3-0.6C21.7,14.2,20.1,13.3,18.5,12.8z"/>
<g>
	<polygon class="st1" points="12.1,7.1 12.8,8.5 14.1,7.6 14.2,9.1 15.7,8.7 15.2,10.2 16.7,10.5 15.7,11.6 16.9,12.5 15.5,13.1 
		16.3,14.4 14.8,14.4 14.9,15.9 13.6,15.3 13.1,16.7 12.1,15.6 11.1,16.7 10.6,15.3 9.3,15.9 9.4,14.4 7.9,14.4 8.7,13.1 7.3,12.5 
		8.5,11.6 7.5,10.5 9,10.2 8.5,8.7 10,9.1 10.1,7.6 11.4,8.5 	"/>
	<circle class="st2" cx="12.1" cy="11.9" r="3"/>
</g>
</svg>
